<?xml version="1.0" encoding="UTF-8"?>
<svg id="a" xmlns="http://www.w3.org/2000/svg" version="1.1" viewBox="0 0 800 800">
  <!-- Generator: Adobe Illustrator 29.7.1, SVG Export Plug-In . SVG Version: 2.1.1 Build 8)  -->
  <defs>
    <style>
      .st0 {
        stroke-width: 15px;
      }

      .st0, .st1, .st2 {
        fill: #fff;
      }

      .st0, .st2, .st3 {
        stroke: #333;
        stroke-linecap: round;
        stroke-linejoin: round;
      }

      .st2, .st3 {
        stroke-width: 16.7px;
      }

      .st4 {
        fill: #333;
      }

      .st3 {
        fill: none;
      }
    </style>
  </defs>
  <g>
    <circle class="st2" cx="322.2" cy="418.4" r="141.5" transform="translate(-201.5 350.4) rotate(-45)"/>
    <g>
      <polygon class="st2" points="337.3 338.2 260.4 365.1 245.1 445.3 307.1 498.6 384.1 471.6 399.3 391.4 337.3 338.2"/>
      <line class="st2" x1="399.3" y1="391.4" x2="461.4" y2="444.8"/>
      <line class="st2" x1="183.3" y1="392.1" x2="245.1" y2="445.3"/>
      <line class="st2" x1="275.4" y1="284.8" x2="260.4" y2="365.1"/>
      <line class="st2" x1="384.1" y1="471.6" x2="369" y2="551.9"/>
      <line class="st2" x1="307.1" y1="498.6" x2="229.8" y2="525.6"/>
      <line class="st2" x1="337.3" y1="338.2" x2="414.6" y2="311.1"/>
    </g>
  </g>
  <rect class="st1" x="401.3" y="332" width="225.9" height="161.9" rx="12.4" ry="12.4" transform="translate(79.5 -83) rotate(10)"/>
  <g id="Layer_2">
    <circle class="st3" cx="400" cy="400" r="387.5"/>
  </g>
  <g>
    <path class="st4" d="M560,379.5c6.2,0,11.3-5.1,11.3-11.3v-139.3c0-6.2-5.1-11.3-11.3-11.3h-203.3c-6.2,0-11.3,5.1-11.3,11.3v139.3c0,6.2,5.1,11.3,11.3,11.3h203.3ZM560,394.5h-203.3c-14.6,0-26.4-11.8-26.4-26.4v-139.3c0-14.6,11.8-26.4,26.4-26.4h203.3c14.6,0,26.4,11.8,26.4,26.4v139.3c0,14.6-11.8,26.4-26.4,26.4h0Z"/>
    <path class="st4" d="M609.2,349.3l11.9,2.1c10.3,1.8,17.1,11.6,15.3,21.8l-22.6,127.6c-1.1,6.1-7,10.2-13.1,9.2l-199.6-35c-6.2-1.1-10.3-6.9-9.2-13.1l7.8-44.3c.7-4.1-2-8-6.1-8.7s-8,2-8.7,6.1l-7.8,44.3c-2.5,14.3,7,28,21.4,30.6l199.6,35c14.3,2.5,28-7.1,30.5-21.4l22.6-127.6c3.3-18.4-9.1-36-27.5-39.3l-11.9-2.1c-4.1-.7-8,2-8.7,6.1s2,8,6.1,8.7h0Z"/>
  </g>
  <rect class="st1" x="345.4" y="217.6" width="225.9" height="161.9" rx="10.5" ry="10.5"/>
  <line class="st0" x1="390.9" y1="426.3" x2="396.7" y2="388.1"/>
</svg>