<?xml version="1.0" encoding="UTF-8"?>
<svg xmlns="http://www.w3.org/2000/svg" version="1.1" viewBox="0 0 800 800">
  <!-- Generator: Adobe Illustrator 30.1.0, SVG Export Plug-In . SVG Version: 2.1.1 Build 136)  -->
  <g id="Layer_2">
    <circle cx="400" cy="400" r="387.5" fill="none" stroke="#333" stroke-linecap="round" stroke-linejoin="round" stroke-width="16.67"/>
  </g>
  <g id="Calque_2">
    <g>
      <path d="M547.92,264.35h0c-8.7,1-15.59,7.88-16.49,16.6-1.05,10.16,6.33,19.34,16.49,20.39,10.21,0,18.49-8.28,18.49-18.49s-8.28-18.49-18.49-18.49Z" fill="none" stroke="#333" stroke-miterlimit="10"/>
      <path d="M462.21,504.66h115.36c9.95-.06,17.99-8.14,17.99-18.09v-233.37c0-9.94-8.05-17.99-17.99-17.99h-108.24l-27.84-28.54h-83.82l-27.84,28.54h-108.24c-9.94,0-17.99,8.05-17.99,17.99v68.69M547.92,301.34c-10.16-1.05-17.54-10.23-16.49-20.39.9-8.71,7.79-15.6,16.49-16.6h0c10.21,0,18.49,8.28,18.49,18.49s-8.28,18.49-18.49,18.49Z" fill="none" stroke="#333" stroke-linecap="round" stroke-linejoin="round" stroke-width="16.67"/>
    </g>
    <g>
      <path d="M326.41,339.14" fill="none" stroke="#333" stroke-linecap="round" stroke-linejoin="round" stroke-width="16.67"/>
      <path d="M463.47,441.36c4.85-6.97,23.23-22.59,13.86-67.02-9.75-46.22-55.12-75.79-101.34-66.04-8.36,1.76-16.18,4.69-23.31,8.59" fill="none" stroke="#333" stroke-linecap="round" stroke-linejoin="round" stroke-width="16.67"/>
    </g>
    <path d="M373.68,310.71" fill="none" stroke="#333" stroke-linecap="round" stroke-linejoin="round" stroke-width="16.67"/>
  </g>
  <g id="Calque_3">
    <g>
      <path d="M405.86,562.96l-4.03-4.57c34.24-37.43,44.24-90.1,28.63-136.42l34.23,38.84-3.97,3.5c-2.21,1.94-2.42,5.31-.47,7.51l14.03,15.92c1.94,2.21,5.31,2.42,7.51.47l15.92-14.03c2.21-1.94,2.42-5.31.47-7.51l-14.03-15.92c-1.94-2.21-5.31-2.42-7.51-.47l-3.97,3.5-58.65-66.56,3.97-3.5c2.21-1.94,2.42-5.31.47-7.51l-14.03-15.93c-1.94-2.21-5.31-2.42-7.51-.47l-3.97,3.5-58.65-66.56,3.97-3.5c2.21-1.94,2.42-5.31.47-7.51l-14.03-15.92c-1.94-2.21-5.31-2.42-7.51-.47l-15.92,14.03c-2.21,1.94-2.42,5.31-.47,7.51l14.03,15.92c1.94,2.21,5.31,2.42,7.51.47l3.97-3.5,34.23,38.85c-43.99-21.31-97.5-18.02-138.94,11.24l-4.03-4.57c-1.94-2.21-5.31-2.42-7.51-.47l-15.92,14.03c-2.21,1.94-2.42,5.31-.47,7.51l14.03,15.93c1.94,2.21,5.31,2.42,7.51.47l15.92-14.03c2.21-1.94,2.42-5.31.47-7.51l-2.92-3.31c47.63-32.97,112.12-29.14,155.5,9.13l-3.19,2.81c-2.21,1.94-2.42,5.31-.47,7.51l14.03,15.93c1.94,2.21,5.31,2.42,7.51.47l3.19-2.81c32.5,47.84,28.19,112.31-10.51,155.41l-2.92-3.31c-1.94-2.21-5.31-2.42-7.51-.47l-15.92,14.03c-2.21,1.94-2.42,5.31-.47,7.51l14.03,15.92c1.94,2.21,5.31,2.42,7.51.47l15.92-14.03c2.21-1.94,2.42-5.31.47-7.51ZM478.75,476.71l-6.99-7.93,3.97-3.5,3.97-3.5,6.99,7.93-7.93,6.99ZM320.24,280.83l6.99,7.93-7.93,6.99-6.99-7.93,7.93-6.99ZM216.51,371.4l-4.35,3.84-6.99-7.94,4.35-3.83,2.6-2.29c.33-.28.67-.56,1.01-.84l6.97,7.91-3.58,3.16ZM403.46,375.27c1.17,1.33,2.3,2.68,3.41,4.04l-7.85,6.92-6.99-7.94,7.85-6.92c1.21,1.27,2.41,2.57,3.58,3.9ZM393.32,566.91l-2.56,2.25-4.35,3.83-6.99-7.93,4.35-3.83,3.59-3.16,6.97,7.91c-.33.31-.67.62-1.01.93Z" fill="#333"/>
      <path d="M382.99,399.82c.9-1.92.57-4.19-.83-5.77s-3.61-2.2-5.62-1.55l-165.1,53.03c-1.32.42-2.43,1.35-3.08,2.58l-.11.21c-.75,1.41-.82,3.09-.2,4.56,6.79,16.13,2.53,34.74-10.6,46.31-5.47,4.82-12.14,8.08-19.28,9.44-.22.04-.44.1-.65.17-1.05.12-2.07.54-2.92,1.29l-20.23,17.83c-2.19,1.93-2.42,5.28-.5,7.49l58.8,67.71.03.03c1.93,2.19,5.28,2.42,7.48.5,2.22-1.93,2.46-5.29.53-7.51l-55.34-63.72,10.04-8.85,54.47,61.81c1.47,1.67,3.82,2.25,5.9,1.45l3.89-1.49c1.5-.58,2.66-1.8,3.16-3.33,2.24-6.91,6.32-13.11,11.79-17.93,13.13-11.57,32.13-13.46,47.28-4.69,1.39.8,3.06.94,4.56.37l.22-.08c1.29-.49,2.34-1.47,2.93-2.72l73.38-157.11ZM268.57,494.13c3.9,4.42,3.47,11.19-.95,15.08-4.42,3.89-11.19,3.47-15.08-.95s-3.47-11.18.95-15.08,11.18-3.47,15.08.95ZM247.58,556.07c-5.73,5.04-10.24,11.29-13.23,18.25l-49.64-56.33c7.29-2.09,14.05-5.78,19.77-10.83,15.15-13.35,20.94-34.12,15.27-53.13l135.74-43.6-82.97,73.11c-7.86-5.33-18.64-4.91-26.08,1.65-8.83,7.78-9.68,21.28-1.9,30.11,7.78,8.83,21.28,9.68,30.11,1.9,7.45-6.56,9.22-17.2,4.92-25.67l82.97-73.11-60.33,129.18c-18.15-8.01-39.49-4.88-54.63,8.47Z" fill="#333"/>
    </g>
  </g>
</svg>