<?xml version="1.0" encoding="UTF-8"?>
<svg id="Calque_1" xmlns="http://www.w3.org/2000/svg" version="1.1" viewBox="0 0 800 800">
  <!-- Generator: Adobe Illustrator 30.1.0, SVG Export Plug-In . SVG Version: 2.1.1 Build 136)  -->
  <g id="Layer_2">
    <circle cx="400" cy="400" r="387.5" fill="none" stroke="#333" stroke-linecap="round" stroke-linejoin="round" stroke-width="16.67"/>
  </g>
  <g>
    <path d="M586.64,195.17H213.36c-10.03,0-18.19,8.16-18.19,18.19v373.28c0,10.03,8.16,18.19,18.19,18.19h373.28c10.03,0,18.19-8.16,18.19-18.19V213.36c0-10.03-8.16-18.19-18.19-18.19ZM590.44,586.64c0,2.1-1.71,3.8-3.8,3.8H213.36c-2.1,0-3.81-1.71-3.81-3.8v-314.26h380.89v314.26ZM590.44,258H209.56v-44.64c0-2.1,1.71-3.8,3.81-3.8h373.28c2.1,0,3.8,1.71,3.8,3.8v44.64h0Z" fill="#333"/>
    <circle cx="240.68" cy="233.08" r="11.56" fill="#333"/>
    <circle cx="277.16" cy="233.08" r="11.56" fill="#333"/>
    <circle cx="313.64" cy="233.08" r="11.56" fill="#333"/>
    <path d="M352.36,502.41c1.07.57,2.23.84,3.37.84,2.58,0,5.07-1.39,6.36-3.82l82.63-155.66c1.86-3.51.53-7.86-2.98-9.73-3.51-1.86-7.86-.53-9.73,2.98l-82.63,155.66c-1.86,3.51-.53,7.86,2.98,9.73Z" fill="#333"/>
    <path d="M258.93,415.27c0,.07.01.13.02.2.04.54.15,1.09.32,1.62.02.07.04.15.07.22.03.09.07.18.11.26.05.14.11.27.17.4,0,.01,0,.02.02.03.01.03.03.05.05.08.12.25.26.49.41.72.04.06.08.13.12.19.17.25.35.48.55.71.04.04.08.08.11.12.17.18.35.35.54.51.07.06.14.12.21.17.2.16.4.3.61.44.04.03.08.06.12.08.21.13.43.25.66.36l71.92,34.39c1,.48,2.06.71,3.1.71,2.68,0,5.26-1.51,6.49-4.09,1.71-3.58.2-7.88-3.39-9.59l-58.35-27.9,58.35-27.9c3.58-1.71,5.1-6.01,3.39-9.59-1.71-3.58-6.01-5.1-9.59-3.39l-71.85,34.35s0,0,0,0l-.07.03c-.06.03-.11.06-.17.09-.14.07-.29.15-.43.23-.08.05-.16.1-.24.15-.12.08-.24.15-.35.24-.08.06-.16.13-.24.2-.1.08-.2.16-.3.25-.08.07-.16.15-.24.23-.09.09-.18.17-.26.27-.08.09-.15.18-.22.27-.08.09-.15.18-.22.27-.08.1-.15.21-.22.32-.06.09-.12.18-.18.27-.08.13-.14.25-.21.38-.04.07-.08.14-.11.21,0,.01-.01.02-.02.04-.06.13-.12.27-.17.4-.04.09-.08.18-.11.26-.03.07-.04.15-.07.23-.17.53-.28,1.08-.32,1.62,0,.07-.02.13-.02.2,0,.12,0,.24,0,.35,0,.12,0,.23,0,.35Z" fill="#333"/>
    <path d="M449.58,452.4c1.23,2.58,3.81,4.09,6.49,4.09,1.04,0,2.1-.23,3.1-.71l71.92-34.39c.23-.11.45-.23.66-.36.04-.02.08-.05.12-.08.21-.14.42-.28.61-.44.07-.06.14-.12.21-.17.19-.16.37-.33.54-.51.04-.04.08-.08.11-.12.2-.22.38-.46.55-.71.04-.06.08-.13.12-.19.15-.23.29-.47.41-.72.01-.03.03-.05.05-.08,0-.01,0-.02.01-.03.06-.13.11-.27.17-.4.03-.09.08-.17.11-.26.03-.07.04-.15.07-.22.17-.54.28-1.08.32-1.62,0-.07.02-.13.02-.2,0-.12,0-.24,0-.35s0-.24,0-.35c0-.07-.01-.13-.02-.2-.04-.54-.15-1.09-.32-1.62-.02-.08-.04-.15-.07-.23-.03-.09-.07-.18-.11-.26-.05-.14-.11-.27-.17-.4,0-.01,0-.02-.01-.04-.04-.07-.08-.14-.12-.21-.07-.13-.13-.26-.21-.38-.06-.09-.12-.18-.18-.27-.07-.1-.14-.21-.21-.31-.07-.1-.15-.19-.23-.28-.07-.09-.14-.18-.22-.26-.09-.1-.18-.19-.27-.28-.07-.07-.15-.15-.22-.22-.1-.09-.21-.18-.32-.27-.07-.06-.14-.12-.22-.17-.13-.1-.26-.18-.39-.27-.06-.04-.13-.09-.19-.12-.16-.1-.33-.19-.5-.27-.04-.02-.07-.04-.11-.06l-.04-.02s-.03-.01-.04-.02l-71.83-34.35c-3.58-1.71-7.88-.2-9.59,3.39-1.71,3.58-.2,7.88,3.39,9.59l58.35,27.9-58.35,27.9c-3.58,1.71-5.1,6.01-3.39,9.59Z" fill="#333"/>
  </g>
</svg>